<?xml version="1.0" encoding="utf-8"?>
<!-- Generator: Adobe Illustrator 16.0.0, SVG Export Plug-In . SVG Version: 6.00 Build 0)  -->
<!DOCTYPE svg PUBLIC "-//W3C//DTD SVG 1.1//EN" "http://www.w3.org/Graphics/SVG/1.1/DTD/svg11.dtd">
<svg version="1.1" id="Layer_1" xmlns="http://www.w3.org/2000/svg" xmlns:xlink="http://www.w3.org/1999/xlink" x="0px" y="0px"
	 width="98.325px" height="100px" viewBox="0 0 98.325 100" enable-background="new 0 0 98.325 100" xml:space="preserve">
<g>
	<path fill="#010101" d="M79.799,19.685c-2.515,0-5.374,0.274-7.114,0.683c-0.083,0.02-0.161,0.026-0.232,0.026
		c-0.073,0-0.139-0.011-0.191-0.026v-5.488c0-3.491-2.167-8.352-12.483-11.686C53.391,1.135,44.993,0,36.128,0
		c-8.863,0-17.259,1.135-23.646,3.194C2.165,6.527,0,11.389,0,14.879v67.862c0,4.876,4.289,9.395,12.075,12.722
		C18.919,98.389,27.463,100,36.13,100c8.667,0,17.212-1.611,24.056-4.537c7.787-3.327,12.075-7.846,12.075-12.722v-6.195
		c0.677-0.728,1.483-0.926,3.409-1.328c1.366-0.292,3.066-0.649,4.904-1.424c4.907-2.061,8.85-4.984,11.716-8.691
		c3.046-3.938,4.877-8.743,5.441-14.289l0.067-0.653c0.639-6.205,1.513-14.696-2.921-21.919
		C91.49,22.721,86.137,19.685,79.799,19.685z M4.754,14.879c0-5.591,14.049-10.126,31.375-10.126
		c17.33,0,31.376,4.535,31.376,10.126v3.927v1.229v1.729v12.78l0,0v2.12v2.376v21.054v1.804v1.643l0,0v11.504v2.476v1.52v3.701
		c0,5.595-14.047,12.506-31.376,12.506c-17.326,0-31.375-6.912-31.375-12.506V14.879z M83.657,48.252
		c-0.039,0.375-0.08,0.748-0.115,1.115c-0.591,5.77-3.14,9.221-8.276,11.192c-0.522,0.199-1.108,0.3-1.745,0.3
		c-0.462,0-0.889-0.053-1.263-0.131V36.311c0.748-0.748,1.689-1.454,2.779-1.774c0.63-0.185,3.346-0.591,4.76-0.591
		c1.253,0,2.008,0.263,2.922,1.752C84.646,38.836,84.145,43.623,83.657,48.252z M69.882,72.331v-7.348
		c1.021,0.374,2.288,0.632,3.639,0.632c1.122,0,2.301-0.178,3.447-0.617c6.56-2.515,10.504-7.277,11.302-15.151
		c0.563-5.513,1.47-11.803-1.495-16.635c-1.685-2.743-3.901-4.019-6.977-4.019c-1.8,0-4.968,0.446-6.105,0.781
		c-0.189,0.058-0.379,0.122-0.565,0.189c-0.053,0.02-0.106,0.039-0.159,0.06c-0.146,0.056-0.291,0.115-0.432,0.177
		c-0.046,0.02-0.091,0.038-0.134,0.055c-0.175,0.082-0.347,0.166-0.517,0.255c-0.055,0.028-0.107,0.058-0.162,0.086
		c-0.118,0.065-0.238,0.133-0.354,0.201c-0.063,0.041-0.13,0.079-0.196,0.12c-0.122,0.078-0.243,0.158-0.363,0.237
		c-0.095,0.064-0.188,0.133-0.28,0.197c-0.095,0.066-0.186,0.135-0.279,0.205c-0.083,0.062-0.166,0.128-0.246,0.195
		c-0.039,0.032-0.082,0.064-0.121,0.099l0,0v-7.559l0,0c0.753,0.407,1.624,0.653,2.569,0.653c0.184,0,0.369-0.009,0.556-0.028
		c0.25-0.026,0.503-0.064,0.761-0.125c1.193-0.279,3.615-0.557,6.03-0.557c4.689,0,8.501,2.175,11.026,6.29
		c3.729,6.075,2.78,13.667,2.176,19.605c-0.976,9.586-6.19,15.688-14.268,19.081c-0.146,0.062-0.296,0.122-0.438,0.176
		c-0.047,0.02-0.089,0.034-0.138,0.051c-0.098,0.036-0.201,0.074-0.3,0.107c-0.048,0.018-0.099,0.035-0.149,0.052
		c-0.096,0.031-0.189,0.062-0.285,0.092c-0.047,0.016-0.096,0.029-0.146,0.046c-0.097,0.03-0.193,0.058-0.286,0.084
		c-0.043,0.012-0.089,0.024-0.132,0.034c-0.104,0.032-0.207,0.061-0.311,0.086c-0.031,0.007-0.063,0.016-0.096,0.025
		c-0.119,0.03-0.24,0.059-0.36,0.089c-0.009,0.002-0.019,0.005-0.029,0.007C73.783,70.803,71.718,70.991,69.882,72.331z"/>
	<path fill="#010101" d="M36.128,22.318c11.808,0,23.759-2.555,23.759-7.439c0-1.429-0.979-2.704-2.912-3.792
		c-0.573-0.322-1.298-0.119-1.618,0.454c-0.321,0.573-0.119,1.297,0.456,1.619c1.065,0.602,1.7,1.243,1.7,1.719
		c0,0.511-0.613,1.15-1.825,1.799c-3.382-2.397-10.865-4.065-19.559-4.065c-8.692,0-16.177,1.668-19.558,4.064
		c-1.208-0.647-1.823-1.287-1.823-1.797c0-0.478,0.637-1.123,1.709-1.723c0.572-0.323,0.776-1.047,0.454-1.619
		c-0.321-0.573-1.046-0.777-1.619-0.455c-1.939,1.09-2.922,2.366-2.922,3.796C12.368,19.764,24.322,22.318,36.128,22.318z"/>
</g>
</svg>
